<svg width="24" height="24" viewBox="0 0 24 24" fill="none" xmlns="http://www.w3.org/2000/svg">
<path d="M11.9444 15.8094C15.6875 15.8094 18.8836 16.6254 18.8836 19.8905C18.8836 23.1543 15.708 24 11.9444 24C8.20129 24 5.00519 23.184 5.00519 19.9203C5.00519 16.6551 8.18077 15.8094 11.9444 15.8094ZM17.9292 13.8433C19.3602 13.8068 20.8987 14.077 21.4671 14.2689C22.6715 14.5944 23.4637 15.2591 23.7919 16.225C24.0694 17.018 24.0694 17.9379 23.7919 18.7296C23.2899 20.2277 21.6713 20.7086 21.0422 20.8329C20.9123 20.8599 20.8078 20.7046 20.8215 20.5249C21.1429 16.3736 18.5866 14.4053 17.9253 13.9527C17.8969 13.9325 17.8911 13.9014 17.894 13.8825C17.896 13.869 17.9077 13.8474 17.9292 13.8433ZM6.07156 13.8439C6.09305 13.8479 6.1038 13.8695 6.10575 13.8817C6.10868 13.9019 6.10282 13.9317 6.07547 13.9533C5.4132 14.4058 2.8569 16.3741 3.17827 20.5241C3.19195 20.7051 3.08841 20.8591 2.95849 20.8335C2.32943 20.7092 0.710868 20.2283 0.208792 18.7301C-0.0695972 17.9371 -0.0695972 17.0185 0.208792 16.2255C0.536997 15.2596 1.32821 14.595 2.53261 14.268C3.10208 14.0776 4.63957 13.8074 6.07156 13.8439ZM11.9444 0C14.4929 0 16.5363 2.8234 16.5363 6.34928C16.5363 9.8738 14.4929 12.6999 11.9444 12.6999C9.39592 12.6999 7.35244 9.8738 7.35244 6.34928C7.35244 2.8234 9.39592 0 11.9444 0ZM18.1783 1.05884C20.6398 1.05884 22.5729 4.26185 21.9145 7.82961C21.4701 10.2315 19.8613 11.8269 18.0689 11.7621C17.8891 11.7554 17.7123 11.7324 17.5414 11.6919C17.4173 11.6621 17.3548 11.469 17.4251 11.3258C18.1089 9.93432 18.4986 8.26055 18.4986 6.46383C18.4986 4.58877 18.0728 2.84069 17.3333 1.40738C17.3099 1.3628 17.2923 1.2939 17.3157 1.24257C17.3353 1.20069 17.3714 1.17907 17.4056 1.16827C17.6547 1.09802 17.9106 1.05884 18.1783 1.05884ZM5.82101 1.05871C6.08866 1.05871 6.34458 1.09788 6.59464 1.16813C6.62785 1.17894 6.66497 1.2019 6.68451 1.24243C6.70697 1.29377 6.69037 1.36266 6.66692 1.40724C5.92748 2.84056 5.5016 4.58864 5.5016 6.4637C5.5016 8.26041 5.89134 9.93419 6.57511 11.3256C6.64544 11.4688 6.58292 11.662 6.45887 11.6917C6.28695 11.7336 6.11112 11.7552 5.93139 11.762C4.13896 11.8268 2.53016 10.2314 2.08572 7.82947C1.42638 4.26172 3.35947 1.05871 5.82101 1.05871Z" fill="white"/>
</svg>
