<svg width="22" height="20" viewBox="0 0 22 20" fill="none" xmlns="http://www.w3.org/2000/svg">
<path d="M18.2172 12.397C20.3072 12.397 22 14.0991 22 16.1991C22 18.2979 20.3072 20 18.2172 20C16.1285 20 14.4345 18.2979 14.4345 16.1991C14.4345 14.0991 16.1285 12.397 18.2172 12.397ZM8.89162 14.5777C9.80706 14.5777 10.5502 15.3244 10.5502 16.2442C10.5502 17.1628 9.80706 17.9107 8.89162 17.9107H1.65855C0.743107 17.9107 0 17.1628 0 16.2442C0 15.3244 0.743107 14.5777 1.65855 14.5777H8.89162ZM3.78276 0C5.87275 0 7.56551 1.70211 7.56551 3.80088C7.56551 5.90088 5.87275 7.60299 3.78276 7.60299C1.69399 7.60299 0 5.90088 0 3.80088C0 1.70211 1.69399 0 3.78276 0ZM20.3427 2.13562C21.2569 2.13562 22 2.88228 22 3.80088C22 4.72071 21.2569 5.46737 20.3427 5.46737H13.1096C12.1942 5.46737 11.4511 4.72071 11.4511 3.80088C11.4511 2.88228 12.1942 2.13562 13.1096 2.13562H20.3427Z" fill="#F9FEFF"/>
</svg>
