<svg width="20" height="20" viewBox="0 0 20 20" fill="none" xmlns="http://www.w3.org/2000/svg">
<path fill-rule="evenodd" clip-rule="evenodd" d="M9.13724 0.267636C9.65764 -0.0892119 10.3424 -0.0892119 10.8628 0.267636L10.8687 0.2717L19.375 6.28626C19.7612 6.56847 20 7.02719 20 7.51V18.45C20 19.2761 19.3261 19.95 18.5 19.95H13.5C12.6739 19.95 12 19.2761 12 18.45V13.46C12 13.1861 11.7739 12.96 11.5 12.96H8.5C8.22614 12.96 8 13.1861 8 13.46V18.46C8 19.2861 7.32614 19.96 6.5 19.96H1.5C0.673858 19.96 0 19.2861 0 18.46V7.51C0 7.01452 0.24101 6.56691 0.624992 6.2863L0.631303 6.28169L9.13724 0.267636ZM9.70524 1.09068L1.21236 7.09564C1.07797 7.19508 1 7.34655 1 7.51V18.46C1 18.7339 1.22614 18.96 1.5 18.96H6.5C6.77386 18.96 7 18.7339 7 18.46V13.46C7 12.6339 7.67386 11.96 8.5 11.96H11.5C12.3261 11.96 13 12.6339 13 13.46V18.45C13 18.7239 13.2261 18.95 13.5 18.95H18.5C18.7739 18.95 19 18.7239 19 18.45V7.51C19 7.35383 18.9199 7.19359 18.7876 7.09562L10.2948 1.09068C10.1163 0.969774 9.88369 0.969774 9.70524 1.09068Z" fill="white"/>
</svg>
