<svg width="19" height="19" viewBox="0 0 19 19" fill="none" xmlns="http://www.w3.org/2000/svg">
<mask id="path-1-inside-1_97_23" fill="white">
<path d="M11.8853 1.08527C11.9178 1.05278 11.952 1.0228 11.9903 0.997355C12.3586 0.75251 14.4851 -0.485531 16.799 1.82843C19.113 4.14238 17.8749 6.26881 17.6301 6.63714C17.6046 6.67541 17.5747 6.70963 17.5422 6.74213L7.82176 16.4625C7.69929 16.585 7.54712 16.6736 7.38013 16.7195L1.52529 18.3317C0.777184 18.5377 0.0896922 17.8503 0.295693 17.1021L1.9079 11.2473C1.95388 11.0803 2.04244 10.9281 2.16491 10.8057L11.8853 1.08527Z"/>
</mask>
<path d="M10.228 4.29901L14.4706 8.54165L15.8848 7.12743L11.6422 2.88479L10.228 4.29901ZM1.52529 18.3317L0.994328 16.4035L1.52529 18.3317ZM0.295693 17.1021L2.22392 17.6331L0.295693 17.1021ZM1.9079 11.2473L3.83613 11.7783L1.9079 11.2473ZM7.38013 16.7195L6.84917 14.7913L7.38013 16.7195ZM17.6301 6.63714L19.2956 7.74433L17.6301 6.63714ZM16.1279 5.32791L6.40755 15.0483L9.23597 17.8767L18.9564 8.15634L16.1279 5.32791ZM3.57912 12.2199L13.2995 2.49949L10.4711 -0.328939L0.750693 9.39146L3.57912 12.2199ZM6.84917 14.7913L0.994328 16.4035L2.05625 20.26L7.9111 18.6478L6.84917 14.7913ZM2.22392 17.6331L3.83613 11.7783L-0.0203354 10.7163L-1.63254 16.5712L2.22392 17.6331ZM13.0975 2.66292C13.1292 2.64185 13.4074 2.4719 13.7822 2.44991C14.061 2.43355 14.6188 2.47667 15.3848 3.24264L18.2132 0.414214C16.6652 -1.13377 15.0029 -1.62861 13.5479 -1.54323C12.1889 -1.46348 11.2197 -0.891984 10.8831 -0.668214L13.0975 2.66292ZM15.3848 3.24264C16.1508 4.00862 16.1939 4.56647 16.1775 4.84523C16.1555 5.22001 15.9856 5.49824 15.9645 5.52994L19.2956 7.74433C19.5194 7.40771 20.0909 6.43856 20.1707 5.07956C20.256 3.62453 19.7612 1.9622 18.2132 0.414214L15.3848 3.24264ZM0.994328 16.4035C1.74243 16.1975 2.42992 16.885 2.22392 17.6331L-1.63254 16.5712C-2.25054 18.8155 -0.188066 20.878 2.05625 20.26L0.994328 16.4035ZM0.750693 9.39146C0.383288 9.75887 0.117606 10.2154 -0.0203354 10.7163L3.83613 11.7783C3.79015 11.9452 3.70159 12.0974 3.57912 12.2199L0.750693 9.39146ZM6.40755 15.0483C6.53001 14.9258 6.68219 14.8373 6.84917 14.7913L7.9111 18.6478C8.41204 18.5098 8.86857 18.2441 9.23597 17.8767L6.40755 15.0483ZM18.9564 8.15634C19.0484 8.0643 19.1742 7.9271 19.2956 7.74433L15.9645 5.52994C16.0351 5.42372 16.1009 5.35496 16.1279 5.32791L18.9564 8.15634ZM13.2995 2.49949C13.2725 2.52653 13.2037 2.59231 13.0975 2.66292L10.8831 -0.668214C10.7003 -0.546716 10.5631 -0.420981 10.4711 -0.328939L13.2995 2.49949Z" fill="#EAEAEA" mask="url(#path-1-inside-1_97_23)"/>
</svg>
