<svg width="28" height="28" viewBox="0 0 28 28" fill="none" xmlns="http://www.w3.org/2000/svg">
<path d="M21.869 21.916C22.4101 21.3785 23.2776 21.3785 23.8187 21.916L27.3952 24.803H27.4573C28.1809 25.5343 28.1809 26.7201 27.4573 27.4515C26.7337 28.1828 25.5606 28.1828 24.837 27.4515L21.869 24.0499L21.7564 23.9228C21.5466 23.6572 21.4307 23.3261 21.4307 22.9829C21.4307 22.5825 21.5884 22.1986 21.869 21.916ZM12.0087 0C15.1936 0 18.2481 1.27881 20.5001 3.55511C22.7522 5.8314 24.0174 8.91873 24.0174 12.1379C24.0174 18.8415 18.6409 24.2758 12.0087 24.2758C5.37648 24.2758 0 18.8415 0 12.1379C0 5.43432 5.37648 0 12.0087 0Z" fill="white"/>
</svg>
