<svg width="9" height="15" viewBox="0 0 9 15" fill="none" xmlns="http://www.w3.org/2000/svg">
<path d="M7.10793 9.59168C6.99319 9.77992 6.94047 10.0521 6.96661 10.3191L7.36046 14.0089C7.39368 14.3216 7.31571 14.6381 7.1611 14.8188C7.00958 15.0063 6.80801 15.0288 6.64276 14.8788L4.68062 13.1464C4.6124 13.0849 4.53664 13.0519 4.45911 13.0482H4.33905C4.29741 13.0587 4.25665 13.0812 4.21944 13.1157L2.25686 14.8563C2.15984 14.9388 2.04997 14.9681 1.94231 14.9388C1.68004 14.8548 1.50505 14.4319 1.54802 13.9856L1.94231 10.2959C1.96845 10.0267 1.91573 9.75292 1.80099 9.56168L0.201241 6.93686C0.0674485 6.71712 0.0209314 6.38714 0.0820682 6.08941C0.141433 5.79243 0.292946 5.5757 0.475914 5.52695L2.67773 4.98624C2.84519 4.95699 2.99227 4.7845 3.06758 4.52952L4.0378 1.16224C4.06084 1.08725 4.09052 1.01825 4.1264 0.959756L4.16628 0.90726C4.1871 0.868263 4.21102 0.836015 4.2376 0.809767L4.28589 0.779769L4.36121 0.727272H4.54772C4.71429 0.75652 4.86093 0.925259 4.93758 1.17724L5.92064 4.52952C5.99152 4.77475 6.1293 4.94499 6.28835 4.98624L8.49016 5.52695C8.67623 5.57195 8.83173 5.78943 8.89331 6.08941C8.95134 6.39014 8.90128 6.72012 8.76483 6.93686L7.10793 9.59168Z" fill="#F5B203"/>
</svg>
