<svg width="24" height="24" viewBox="0 0 24 24" fill="none" xmlns="http://www.w3.org/2000/svg">
<path fill-rule="evenodd" clip-rule="evenodd" d="M17 2C17.2761 2 17.5 2.22386 17.5 2.5L17.5 20.5C17.5 20.7761 17.2761 21 17 21C16.7239 21 16.5 20.7761 16.5 20.5L16.5 2.5C16.5 2.22386 16.7239 2 17 2Z" fill="white"/>
<path fill-rule="evenodd" clip-rule="evenodd" d="M21.8345 16.1284C22.0397 16.3131 22.0564 16.6292 21.8716 16.8345L17.3716 21.8345C17.2768 21.9398 17.1417 22 17 22C16.8583 22 16.7232 21.9398 16.6283 21.8345L12.1283 16.8345C11.9436 16.6292 11.9603 16.3131 12.1655 16.1284C12.3708 15.9436 12.6869 15.9603 12.8716 16.1655L17 20.7526L21.1283 16.1655C21.3131 15.9603 21.6292 15.9436 21.8345 16.1284Z" fill="white"/>
<path fill-rule="evenodd" clip-rule="evenodd" d="M7 3C7.27614 3 7.5 3.22386 7.5 3.5L7.5 21.5C7.5 21.7761 7.27614 22 7 22C6.72386 22 6.5 21.7761 6.5 21.5L6.5 3.5C6.5 3.22386 6.72386 3 7 3Z" fill="white"/>
<path fill-rule="evenodd" clip-rule="evenodd" d="M11.8345 7.87165C11.6292 8.05638 11.3131 8.03974 11.1283 7.83448L7 3.24742L2.87164 7.83448C2.68691 8.03974 2.37077 8.05638 2.16551 7.87165C1.96026 7.68692 1.94362 7.37077 2.12835 7.16552L6.62835 2.16552C6.72317 2.06016 6.85825 2 7 2C7.14174 2 7.27682 2.06016 7.37164 2.16552L11.8716 7.16552C12.0564 7.37077 12.0397 7.68692 11.8345 7.87165Z" fill="white"/>
</svg>
